<?xml version="1.0" encoding="UTF-8" standalone="no"?>
<!DOCTYPE svg PUBLIC "-//W3C//DTD SVG 1.1//EN"
 "http://www.w3.org/Graphics/SVG/1.1/DTD/svg11.dtd">
<!-- Generated by graphviz version 2.43.0 (0)
 -->
<!-- Title: %3 Pages: 1 -->
<svg width="372pt" height="980pt"
 viewBox="0.00 0.00 371.50 980.00" xmlns="http://www.w3.org/2000/svg" xmlns:xlink="http://www.w3.org/1999/xlink">
<g id="graph0" class="graph" transform="scale(1 1) rotate(0) translate(4 976)">
<title>%3</title>
<polygon fill="white" stroke="transparent" points="-4,4 -4,-976 367.5,-976 367.5,4 -4,4"/>
<!-- 21 -->
<g id="node1" class="node">
<title>21</title>
<g id="a_node1"><a xlink:title="/usr/local/lib/python3.11/dist&#45;packages/pluggy/_hooks.py">
<polygon fill="#ff0000" stroke="#ff0000" points="333,-512 227,-512 227,-460 333,-460 333,-512"/>
<text text-anchor="middle" x="280" y="-500" font-family="Arial" font-size="10.00" fill="#ffffff">_hooks:498:__call__</text>
<text text-anchor="middle" x="280" y="-489" font-family="Arial" font-size="10.00" fill="#ffffff">100.00%</text>
<text text-anchor="middle" x="280" y="-478" font-family="Arial" font-size="10.00" fill="#ffffff">(0.00%)</text>
<text text-anchor="middle" x="280" y="-467" font-family="Arial" font-size="10.00" fill="#ffffff">29×</text>
</a>
</g>
</g>
<!-- 378 -->
<g id="node2" class="node">
<title>378</title>
<g id="a_node2"><a xlink:title="/usr/local/lib/python3.11/dist&#45;packages/pluggy/_manager.py">
<polygon fill="#ff0000" stroke="#ff0000" points="303.5,-420 176.5,-420 176.5,-368 303.5,-368 303.5,-420"/>
<text text-anchor="middle" x="240" y="-408" font-family="Arial" font-size="10.00" fill="#ffffff">_manager:111:_hookexec</text>
<text text-anchor="middle" x="240" y="-397" font-family="Arial" font-size="10.00" fill="#ffffff">99.99%</text>
<text text-anchor="middle" x="240" y="-386" font-family="Arial" font-size="10.00" fill="#ffffff">(0.00%)</text>
<text text-anchor="middle" x="240" y="-375" font-family="Arial" font-size="10.00" fill="#ffffff">29×</text>
</a>
</g>
</g>
<!-- 21&#45;&gt;378 -->
<g id="edge1" class="edge">
<title>21&#45;&gt;378</title>
<path fill="none" stroke="#ff0000" stroke-width="4" d="M268.86,-459.93C264.69,-450.55 259.88,-439.72 255.39,-429.63"/>
<polygon fill="#ff0000" stroke="#ff0000" stroke-width="4" points="258.48,-427.96 251.22,-420.25 252.08,-430.81 258.48,-427.96"/>
<text text-anchor="middle" x="282" y="-443" font-family="Arial" font-size="10.00" fill="#ff0000">99.99%</text>
<text text-anchor="middle" x="282" y="-432" font-family="Arial" font-size="10.00" fill="#ff0000">11×</text>
</g>
<!-- 55 -->
<g id="node3" class="node">
<title>55</title>
<g id="a_node3"><a xlink:title="/usr/local/lib/python3.11/dist&#45;packages/pluggy/_callers.py">
<polygon fill="#ff0000" stroke="#ff0000" points="286,-328 178,-328 178,-276 286,-276 286,-328"/>
<text text-anchor="middle" x="232" y="-316" font-family="Arial" font-size="10.00" fill="#ffffff">_callers:53:_multicall</text>
<text text-anchor="middle" x="232" y="-305" font-family="Arial" font-size="10.00" fill="#ffffff">99.99%</text>
<text text-anchor="middle" x="232" y="-294" font-family="Arial" font-size="10.00" fill="#ffffff">(0.01%)</text>
<text text-anchor="middle" x="232" y="-283" font-family="Arial" font-size="10.00" fill="#ffffff">29×</text>
</a>
</g>
</g>
<!-- 378&#45;&gt;55 -->
<g id="edge8" class="edge">
<title>378&#45;&gt;55</title>
<path fill="none" stroke="#ff0000" stroke-width="4" d="M237.77,-367.93C236.95,-358.74 236.01,-348.17 235.13,-338.25"/>
<polygon fill="#ff0000" stroke="#ff0000" stroke-width="4" points="238.62,-337.9 234.24,-328.25 231.64,-338.52 238.62,-337.9"/>
<text text-anchor="middle" x="254" y="-351" font-family="Arial" font-size="10.00" fill="#ff0000">99.99%</text>
<text text-anchor="middle" x="254" y="-340" font-family="Arial" font-size="10.00" fill="#ff0000">11×</text>
</g>
<!-- 390 -->
<g id="node4" class="node">
<title>390</title>
<g id="a_node4"><a xlink:title="/usr/local/lib/python3.11/dist&#45;packages/_pytest/runner.py">
<polygon fill="#fe0400" stroke="#fe0400" points="306,-236 158,-236 158,-184 306,-184 306,-236"/>
<text text-anchor="middle" x="232" y="-224" font-family="Arial" font-size="10.00" fill="#ffffff">runner:162:pytest_runtest_call</text>
<text text-anchor="middle" x="232" y="-213" font-family="Arial" font-size="10.00" fill="#ffffff">99.61%</text>
<text text-anchor="middle" x="232" y="-202" font-family="Arial" font-size="10.00" fill="#ffffff">(0.00%)</text>
<text text-anchor="middle" x="232" y="-191" font-family="Arial" font-size="10.00" fill="#ffffff">1×</text>
</a>
</g>
</g>
<!-- 55&#45;&gt;390 -->
<g id="edge2" class="edge">
<title>55&#45;&gt;390</title>
<path fill="none" stroke="#fe0400" stroke-width="3.98" d="M232,-275.93C232,-266.74 232,-256.17 232,-246.25"/>
<polygon fill="#fe0400" stroke="#fe0400" stroke-width="3.98" points="235.5,-246.25 232,-236.25 228.5,-246.25 235.5,-246.25"/>
<text text-anchor="middle" x="249" y="-259" font-family="Arial" font-size="10.00" fill="#fe0400">99.61%</text>
<text text-anchor="middle" x="249" y="-248" font-family="Arial" font-size="10.00" fill="#fe0400">1×</text>
</g>
<!-- 410 -->
<g id="node5" class="node">
<title>410</title>
<g id="a_node5"><a xlink:title="/usr/local/lib/python3.11/dist&#45;packages/pytest_tornasync/plugin.py">
<polygon fill="#fe0400" stroke="#fe0400" points="149,-236 9,-236 9,-184 149,-184 149,-236"/>
<text text-anchor="middle" x="79" y="-224" font-family="Arial" font-size="10.00" fill="#ffffff">plugin:39:pytest_pyfunc_call</text>
<text text-anchor="middle" x="79" y="-213" font-family="Arial" font-size="10.00" fill="#ffffff">99.61%</text>
<text text-anchor="middle" x="79" y="-202" font-family="Arial" font-size="10.00" fill="#ffffff">(0.00%)</text>
<text text-anchor="middle" x="79" y="-191" font-family="Arial" font-size="10.00" fill="#ffffff">1×</text>
</a>
</g>
</g>
<!-- 55&#45;&gt;410 -->
<g id="edge3" class="edge">
<title>55&#45;&gt;410</title>
<path fill="none" stroke="#fe0400" stroke-width="3.98" d="M189.38,-275.93C171.06,-265.15 149.48,-252.46 130.29,-241.17"/>
<polygon fill="#fe0400" stroke="#fe0400" stroke-width="3.98" points="132.05,-238.14 121.66,-236.09 128.5,-244.18 132.05,-238.14"/>
<text text-anchor="middle" x="191" y="-259" font-family="Arial" font-size="10.00" fill="#fe0400">99.61%</text>
<text text-anchor="middle" x="191" y="-248" font-family="Arial" font-size="10.00" fill="#fe0400">1×</text>
</g>
<!-- 507 -->
<g id="node13" class="node">
<title>507</title>
<g id="a_node13"><a xlink:title="/usr/local/lib/python3.11/dist&#45;packages/_pytest/python.py">
<polygon fill="#fe0400" stroke="#fe0400" points="338.5,-144 235.5,-144 235.5,-92 338.5,-92 338.5,-144"/>
<text text-anchor="middle" x="287" y="-132" font-family="Arial" font-size="10.00" fill="#ffffff">python:1630:runtest</text>
<text text-anchor="middle" x="287" y="-121" font-family="Arial" font-size="10.00" fill="#ffffff">99.61%</text>
<text text-anchor="middle" x="287" y="-110" font-family="Arial" font-size="10.00" fill="#ffffff">(0.00%)</text>
<text text-anchor="middle" x="287" y="-99" font-family="Arial" font-size="10.00" fill="#ffffff">1×</text>
</a>
</g>
</g>
<!-- 390&#45;&gt;507 -->
<g id="edge9" class="edge">
<title>390&#45;&gt;507</title>
<path fill="none" stroke="#fe0400" stroke-width="3.98" d="M247.32,-183.93C253.17,-174.36 259.94,-163.27 266.22,-153"/>
<polygon fill="#fe0400" stroke="#fe0400" stroke-width="3.98" points="269.34,-154.61 271.57,-144.25 263.37,-150.96 269.34,-154.61"/>
<text text-anchor="middle" x="284" y="-167" font-family="Arial" font-size="10.00" fill="#fe0400">99.61%</text>
<text text-anchor="middle" x="284" y="-156" font-family="Arial" font-size="10.00" fill="#fe0400">1×</text>
</g>
<!-- 344 -->
<g id="node11" class="node">
<title>344</title>
<g id="a_node11"><a xlink:title="/root/pytest_plugin/test/test_example.py">
<polygon fill="#fe0400" stroke="#fe0400" points="154,-144 4,-144 4,-92 154,-92 154,-144"/>
<text text-anchor="middle" x="79" y="-132" font-family="Arial" font-size="10.00" fill="#ffffff">test_example:3:test_long_time</text>
<text text-anchor="middle" x="79" y="-121" font-family="Arial" font-size="10.00" fill="#ffffff">99.61%</text>
<text text-anchor="middle" x="79" y="-110" font-family="Arial" font-size="10.00" fill="#ffffff">(0.00%)</text>
<text text-anchor="middle" x="79" y="-99" font-family="Arial" font-size="10.00" fill="#ffffff">1×</text>
</a>
</g>
</g>
<!-- 410&#45;&gt;344 -->
<g id="edge11" class="edge">
<title>410&#45;&gt;344</title>
<path fill="none" stroke="#fe0400" stroke-width="3.98" d="M79,-183.93C79,-174.74 79,-164.17 79,-154.25"/>
<polygon fill="#fe0400" stroke="#fe0400" stroke-width="3.98" points="82.5,-154.25 79,-144.25 75.5,-154.25 82.5,-154.25"/>
<text text-anchor="middle" x="96" y="-167" font-family="Arial" font-size="10.00" fill="#fe0400">99.61%</text>
<text text-anchor="middle" x="96" y="-156" font-family="Arial" font-size="10.00" fill="#fe0400">1×</text>
</g>
<!-- 57 -->
<g id="node6" class="node">
<title>57</title>
<g id="a_node6"><a xlink:title="/usr/local/lib/python3.11/dist&#45;packages/_pytest/runner.py">
<polygon fill="#ff0000" stroke="#ff0000" points="345,-880 215,-880 215,-828 345,-828 345,-880"/>
<text text-anchor="middle" x="280" y="-868" font-family="Arial" font-size="10.00" fill="#ffffff">runner:121:runtestprotocol</text>
<text text-anchor="middle" x="280" y="-857" font-family="Arial" font-size="10.00" fill="#ffffff">100.00%</text>
<text text-anchor="middle" x="280" y="-846" font-family="Arial" font-size="10.00" fill="#ffffff">(0.00%)</text>
<text text-anchor="middle" x="280" y="-835" font-family="Arial" font-size="10.00" fill="#ffffff">1×</text>
</a>
</g>
</g>
<!-- 391 -->
<g id="node7" class="node">
<title>391</title>
<g id="a_node7"><a xlink:title="/usr/local/lib/python3.11/dist&#45;packages/_pytest/runner.py">
<polygon fill="#ff0000" stroke="#ff0000" points="345.5,-788 214.5,-788 214.5,-736 345.5,-736 345.5,-788"/>
<text text-anchor="middle" x="280" y="-776" font-family="Arial" font-size="10.00" fill="#ffffff">runner:225:call_and_report</text>
<text text-anchor="middle" x="280" y="-765" font-family="Arial" font-size="10.00" fill="#ffffff">100.00%</text>
<text text-anchor="middle" x="280" y="-754" font-family="Arial" font-size="10.00" fill="#ffffff">(0.00%)</text>
<text text-anchor="middle" x="280" y="-743" font-family="Arial" font-size="10.00" fill="#ffffff">3×</text>
</a>
</g>
</g>
<!-- 57&#45;&gt;391 -->
<g id="edge4" class="edge">
<title>57&#45;&gt;391</title>
<path fill="none" stroke="#ff0000" stroke-width="4" d="M280,-827.93C280,-818.74 280,-808.17 280,-798.25"/>
<polygon fill="#ff0000" stroke="#ff0000" stroke-width="4" points="283.5,-798.25 280,-788.25 276.5,-798.25 283.5,-798.25"/>
<text text-anchor="middle" x="299.5" y="-811" font-family="Arial" font-size="10.00" fill="#ff0000">100.00%</text>
<text text-anchor="middle" x="299.5" y="-800" font-family="Arial" font-size="10.00" fill="#ff0000">3×</text>
</g>
<!-- 342 -->
<g id="node8" class="node">
<title>342</title>
<g id="a_node8"><a xlink:title="/usr/local/lib/python3.11/dist&#45;packages/_pytest/runner.py">
<polygon fill="#ff0000" stroke="#ff0000" points="332.5,-696 227.5,-696 227.5,-644 332.5,-644 332.5,-696"/>
<text text-anchor="middle" x="280" y="-684" font-family="Arial" font-size="10.00" fill="#ffffff">runner:318:from_call</text>
<text text-anchor="middle" x="280" y="-673" font-family="Arial" font-size="10.00" fill="#ffffff">99.98%</text>
<text text-anchor="middle" x="280" y="-662" font-family="Arial" font-size="10.00" fill="#ffffff">(0.00%)</text>
<text text-anchor="middle" x="280" y="-651" font-family="Arial" font-size="10.00" fill="#ffffff">3×</text>
</a>
</g>
</g>
<!-- 391&#45;&gt;342 -->
<g id="edge10" class="edge">
<title>391&#45;&gt;342</title>
<path fill="none" stroke="#ff0000" stroke-width="4" d="M280,-735.93C280,-726.74 280,-716.17 280,-706.25"/>
<polygon fill="#ff0000" stroke="#ff0000" stroke-width="4" points="283.5,-706.25 280,-696.25 276.5,-706.25 283.5,-706.25"/>
<text text-anchor="middle" x="297" y="-719" font-family="Arial" font-size="10.00" fill="#ff0000">99.98%</text>
<text text-anchor="middle" x="297" y="-708" font-family="Arial" font-size="10.00" fill="#ff0000">3×</text>
</g>
<!-- 536 -->
<g id="node9" class="node">
<title>536</title>
<g id="a_node9"><a xlink:title="/usr/local/lib/python3.11/dist&#45;packages/_pytest/runner.py">
<polygon fill="#ff0000" stroke="#ff0000" points="334.5,-604 225.5,-604 225.5,-552 334.5,-552 334.5,-604"/>
<text text-anchor="middle" x="280" y="-592" font-family="Arial" font-size="10.00" fill="#ffffff">runner:241:&lt;lambda&gt;</text>
<text text-anchor="middle" x="280" y="-581" font-family="Arial" font-size="10.00" fill="#ffffff">99.98%</text>
<text text-anchor="middle" x="280" y="-570" font-family="Arial" font-size="10.00" fill="#ffffff">(0.00%)</text>
<text text-anchor="middle" x="280" y="-559" font-family="Arial" font-size="10.00" fill="#ffffff">3×</text>
</a>
</g>
</g>
<!-- 342&#45;&gt;536 -->
<g id="edge5" class="edge">
<title>342&#45;&gt;536</title>
<path fill="none" stroke="#ff0000" stroke-width="4" d="M280,-643.93C280,-634.74 280,-624.17 280,-614.25"/>
<polygon fill="#ff0000" stroke="#ff0000" stroke-width="4" points="283.5,-614.25 280,-604.25 276.5,-614.25 283.5,-614.25"/>
<text text-anchor="middle" x="297" y="-627" font-family="Arial" font-size="10.00" fill="#ff0000">99.98%</text>
<text text-anchor="middle" x="297" y="-616" font-family="Arial" font-size="10.00" fill="#ff0000">3×</text>
</g>
<!-- 536&#45;&gt;21 -->
<g id="edge13" class="edge">
<title>536&#45;&gt;21</title>
<path fill="none" stroke="#ff0000" stroke-width="4" d="M280,-551.93C280,-542.74 280,-532.17 280,-522.25"/>
<polygon fill="#ff0000" stroke="#ff0000" stroke-width="4" points="283.5,-522.25 280,-512.25 276.5,-522.25 283.5,-522.25"/>
<text text-anchor="middle" x="297" y="-535" font-family="Arial" font-size="10.00" fill="#ff0000">99.97%</text>
<text text-anchor="middle" x="297" y="-524" font-family="Arial" font-size="10.00" fill="#ff0000">3×</text>
</g>
<!-- 343 -->
<g id="node10" class="node">
<title>343</title>
<g id="a_node10"><a xlink:title="~">
<polygon fill="#fe0400" stroke="#fe0400" points="158,-52 0,-52 0,0 158,0 158,-52"/>
<text text-anchor="middle" x="79" y="-40" font-family="Arial" font-size="10.00" fill="#ffffff">~:0:&lt;built&#45;in method time.sleep&gt;</text>
<text text-anchor="middle" x="79" y="-29" font-family="Arial" font-size="10.00" fill="#ffffff">99.61%</text>
<text text-anchor="middle" x="79" y="-18" font-family="Arial" font-size="10.00" fill="#ffffff">(99.61%)</text>
<text text-anchor="middle" x="79" y="-7" font-family="Arial" font-size="10.00" fill="#ffffff">1×</text>
</a>
</g>
</g>
<!-- 344&#45;&gt;343 -->
<g id="edge6" class="edge">
<title>344&#45;&gt;343</title>
<path fill="none" stroke="#fe0400" stroke-width="3.98" d="M79,-91.93C79,-82.74 79,-72.17 79,-62.25"/>
<polygon fill="#fe0400" stroke="#fe0400" stroke-width="3.98" points="82.5,-62.25 79,-52.25 75.5,-62.25 82.5,-62.25"/>
<text text-anchor="middle" x="96" y="-75" font-family="Arial" font-size="10.00" fill="#fe0400">99.61%</text>
<text text-anchor="middle" x="96" y="-64" font-family="Arial" font-size="10.00" fill="#fe0400">1×</text>
</g>
<!-- 361 -->
<g id="node12" class="node">
<title>361</title>
<g id="a_node12"><a xlink:title="/usr/local/lib/python3.11/dist&#45;packages/_pytest/runner.py">
<polygon fill="#ff0000" stroke="#ff0000" points="363.5,-972 196.5,-972 196.5,-920 363.5,-920 363.5,-972"/>
<text text-anchor="middle" x="280" y="-960" font-family="Arial" font-size="10.00" fill="#ffffff">runner:113:pytest_runtest_protocol</text>
<text text-anchor="middle" x="280" y="-949" font-family="Arial" font-size="10.00" fill="#ffffff">100.00%</text>
<text text-anchor="middle" x="280" y="-938" font-family="Arial" font-size="10.00" fill="#ffffff">(0.00%)</text>
<text text-anchor="middle" x="280" y="-927" font-family="Arial" font-size="10.00" fill="#ffffff">1×</text>
</a>
</g>
</g>
<!-- 361&#45;&gt;57 -->
<g id="edge7" class="edge">
<title>361&#45;&gt;57</title>
<path fill="none" stroke="#ff0000" stroke-width="4" d="M280,-919.93C280,-910.74 280,-900.17 280,-890.25"/>
<polygon fill="#ff0000" stroke="#ff0000" stroke-width="4" points="283.5,-890.25 280,-880.25 276.5,-890.25 283.5,-890.25"/>
<text text-anchor="middle" x="299.5" y="-903" font-family="Arial" font-size="10.00" fill="#ff0000">100.00%</text>
<text text-anchor="middle" x="299.5" y="-892" font-family="Arial" font-size="10.00" fill="#ff0000">1×</text>
</g>
<!-- 507&#45;&gt;21 -->
<g id="edge12" class="edge">
<title>507&#45;&gt;21</title>
<path fill="none" stroke="#fe0400" stroke-width="3.98" d="M301.57,-144.1C310.41,-161.68 320,-186.03 320,-209 320,-395 320,-395 320,-395 320,-414.58 311.99,-434.66 303.15,-450.86"/>
<polygon fill="#fe0400" stroke="#fe0400" stroke-width="3.98" points="299.88,-449.52 297.89,-459.92 305.94,-453.03 299.88,-449.52"/>
<text text-anchor="middle" x="337" y="-305" font-family="Arial" font-size="10.00" fill="#fe0400">99.61%</text>
<text text-anchor="middle" x="337" y="-294" font-family="Arial" font-size="10.00" fill="#fe0400">1×</text>
</g>
</g>
</svg>
